<?xml version="1.0" encoding="UTF-8" standalone="no"?>
<svg width="413.544mm" height="208.756mm"
 viewBox="0 0 1563 789"
 xmlns="http://www.w3.org/2000/svg" xmlns:xlink="http://www.w3.org/1999/xlink"  version="1.2" baseProfile="tiny">
<title>Qt Svg Document</title>
<desc>Generated with Qt</desc>
<defs>
</defs>
<g fill="none" stroke="black" stroke-width="1" fill-rule="evenodd" stroke-linecap="square" stroke-linejoin="bevel" >

<g fill="none" stroke="#000000" stroke-opacity="1" stroke-width="1" stroke-linecap="square" stroke-linejoin="bevel" transform="matrix(1,0,0,1,0,0)"
font-family="MS Shell Dlg 2" font-size="11" font-weight="400" font-style="normal" 
>
</g>

<g fill="#ffffff" fill-opacity="1" stroke="none" transform="matrix(1,0,0,1,0,0)"
font-family="MS Shell Dlg 2" font-size="11" font-weight="400" font-style="normal" 
>
<path vector-effect="non-scaling-stroke" fill-rule="evenodd" d="M0,0 L1563,0 L1563,789 L0,789 L0,0"/>
</g>

<g fill="none" stroke="#000000" stroke-opacity="1" stroke-width="1" stroke-linecap="square" stroke-linejoin="bevel" transform="matrix(1,0,0,1,0,0)"
font-family="MS Shell Dlg 2" font-size="11" font-weight="400" font-style="normal" 
>
</g>

<g fill="#000000" fill-opacity="1" stroke="#000000" stroke-opacity="1" stroke-width="1" stroke-linecap="square" stroke-linejoin="bevel" transform="matrix(0.99936,0,0,0.998733,0,0)"
font-family="MS Shell Dlg 2" font-size="11" font-weight="400" font-style="normal" 
>
</g>

<g fill="#000000" fill-opacity="1" stroke="#000000" stroke-opacity="1" stroke-width="1" stroke-linecap="round" stroke-linejoin="bevel" transform="matrix(0.99936,0,0,0.998733,0,0)"
font-family="MS Shell Dlg 2" font-size="11" font-weight="400" font-style="normal" 
>
<polyline fill="none" vector-effect="none" points="0,524.75 1563,524.75 " />
<polyline fill="none" vector-effect="none" points="0,264.25 1563,264.25 " />
<polyline fill="none" vector-effect="none" points="0,524.75 0,264.25 " />
<polyline fill="none" vector-effect="none" points="260.5,524.75 260.5,394.5 " />
<polyline fill="none" vector-effect="none" points="1563,394.5 0,394.5 " />
<polyline fill="none" vector-effect="none" points="130.25,427.062 130.25,524.75 " />
<polyline fill="none" vector-effect="none" points="65.125,459.625 65.125,524.75 " />
<polyline fill="none" vector-effect="none" points="32.5625,475.906 32.5625,524.75 " />
<polyline fill="none" vector-effect="none" points="97.6875,475.906 97.6875,524.75 " />
<polyline fill="none" vector-effect="none" points="227.938,475.906 227.938,524.75 " />
<polyline fill="none" vector-effect="none" points="195.375,459.625 195.375,524.75 " />
<polyline fill="none" vector-effect="none" points="162.812,475.906 162.812,524.75 " />
<polyline fill="none" vector-effect="none" points="16.2812,500.328 16.2812,524.75 " />
<polyline fill="none" vector-effect="none" points="48.8438,500.328 48.8438,524.75 " />
<polyline fill="none" vector-effect="none" points="113.969,500.328 113.969,524.75 " />
<polyline fill="none" vector-effect="none" points="81.4062,500.328 81.4062,524.75 " />
<polyline fill="none" vector-effect="none" points="244.219,500.328 244.219,524.75 " />
<polyline fill="none" vector-effect="none" points="211.656,500.328 211.656,524.75 " />
<polyline fill="none" vector-effect="none" points="179.094,500.328 179.094,524.75 " />
<polyline fill="none" vector-effect="none" points="146.531,500.328 146.531,524.75 " />
<polyline fill="none" vector-effect="none" points="521,524.75 521,394.5 " />
<polyline fill="none" vector-effect="none" points="390.75,427.062 390.75,524.75 " />
<polyline fill="none" vector-effect="none" points="325.625,459.625 325.625,524.75 " />
<polyline fill="none" vector-effect="none" points="293.062,475.906 293.062,524.75 " />
<polyline fill="none" vector-effect="none" points="358.188,475.906 358.188,524.75 " />
<polyline fill="none" vector-effect="none" points="488.438,475.906 488.438,524.75 " />
<polyline fill="none" vector-effect="none" points="455.875,459.625 455.875,524.75 " />
<polyline fill="none" vector-effect="none" points="423.312,475.906 423.312,524.75 " />
<polyline fill="none" vector-effect="none" points="276.781,500.328 276.781,524.75 " />
<polyline fill="none" vector-effect="none" points="309.344,500.328 309.344,524.75 " />
<polyline fill="none" vector-effect="none" points="374.469,500.328 374.469,524.75 " />
<polyline fill="none" vector-effect="none" points="341.906,500.328 341.906,524.75 " />
<polyline fill="none" vector-effect="none" points="504.719,500.328 504.719,524.75 " />
<polyline fill="none" vector-effect="none" points="472.156,500.328 472.156,524.75 " />
<polyline fill="none" vector-effect="none" points="439.594,500.328 439.594,524.75 " />
<polyline fill="none" vector-effect="none" points="407.031,500.328 407.031,524.75 " />
<polyline fill="none" vector-effect="none" points="781.5,524.75 781.5,394.5 " />
<polyline fill="none" vector-effect="none" points="651.25,427.062 651.25,524.75 " />
<polyline fill="none" vector-effect="none" points="586.125,459.625 586.125,524.75 " />
<polyline fill="none" vector-effect="none" points="553.562,475.906 553.562,524.75 " />
<polyline fill="none" vector-effect="none" points="618.688,475.906 618.688,524.75 " />
<polyline fill="none" vector-effect="none" points="748.938,475.906 748.938,524.75 " />
<polyline fill="none" vector-effect="none" points="716.375,459.625 716.375,524.75 " />
<polyline fill="none" vector-effect="none" points="683.812,475.906 683.812,524.75 " />
<polyline fill="none" vector-effect="none" points="537.281,500.328 537.281,524.75 " />
<polyline fill="none" vector-effect="none" points="569.844,500.328 569.844,524.75 " />
<polyline fill="none" vector-effect="none" points="634.969,500.328 634.969,524.75 " />
<polyline fill="none" vector-effect="none" points="602.406,500.328 602.406,524.75 " />
<polyline fill="none" vector-effect="none" points="765.219,500.328 765.219,524.75 " />
<polyline fill="none" vector-effect="none" points="732.656,500.328 732.656,524.75 " />
<polyline fill="none" vector-effect="none" points="700.094,500.328 700.094,524.75 " />
<polyline fill="none" vector-effect="none" points="667.531,500.328 667.531,524.75 " />
<polyline fill="none" vector-effect="none" points="1042,524.75 1042,394.5 " />
<polyline fill="none" vector-effect="none" points="911.75,427.062 911.75,524.75 " />
<polyline fill="none" vector-effect="none" points="846.625,459.625 846.625,524.75 " />
<polyline fill="none" vector-effect="none" points="814.062,475.906 814.062,524.75 " />
<polyline fill="none" vector-effect="none" points="879.188,475.906 879.188,524.75 " />
<polyline fill="none" vector-effect="none" points="1009.44,475.906 1009.44,524.75 " />
<polyline fill="none" vector-effect="none" points="976.875,459.625 976.875,524.75 " />
<polyline fill="none" vector-effect="none" points="944.312,475.906 944.312,524.75 " />
<polyline fill="none" vector-effect="none" points="797.781,500.328 797.781,524.75 " />
<polyline fill="none" vector-effect="none" points="830.344,500.328 830.344,524.75 " />
<polyline fill="none" vector-effect="none" points="895.469,500.328 895.469,524.75 " />
<polyline fill="none" vector-effect="none" points="862.906,500.328 862.906,524.75 " />
<polyline fill="none" vector-effect="none" points="1025.72,500.328 1025.72,524.75 " />
<polyline fill="none" vector-effect="none" points="993.156,500.328 993.156,524.75 " />
<polyline fill="none" vector-effect="none" points="960.594,500.328 960.594,524.75 " />
<polyline fill="none" vector-effect="none" points="928.031,500.328 928.031,524.75 " />
<polyline fill="none" vector-effect="none" points="1302.5,524.75 1302.5,394.5 " />
<polyline fill="none" vector-effect="none" points="1172.25,427.062 1172.25,524.75 " />
<polyline fill="none" vector-effect="none" points="1107.12,459.625 1107.12,524.75 " />
<polyline fill="none" vector-effect="none" points="1074.56,475.906 1074.56,524.75 " />
<polyline fill="none" vector-effect="none" points="1139.69,475.906 1139.69,524.75 " />
<polyline fill="none" vector-effect="none" points="1269.94,475.906 1269.94,524.75 " />
<polyline fill="none" vector-effect="none" points="1237.38,459.625 1237.38,524.75 " />
<polyline fill="none" vector-effect="none" points="1204.81,475.906 1204.81,524.75 " />
<polyline fill="none" vector-effect="none" points="1058.28,500.328 1058.28,524.75 " />
<polyline fill="none" vector-effect="none" points="1090.84,500.328 1090.84,524.75 " />
<polyline fill="none" vector-effect="none" points="1155.97,500.328 1155.97,524.75 " />
<polyline fill="none" vector-effect="none" points="1123.41,500.328 1123.41,524.75 " />
<polyline fill="none" vector-effect="none" points="1286.22,500.328 1286.22,524.75 " />
<polyline fill="none" vector-effect="none" points="1253.66,500.328 1253.66,524.75 " />
<polyline fill="none" vector-effect="none" points="1221.09,500.328 1221.09,524.75 " />
<polyline fill="none" vector-effect="none" points="1188.53,500.328 1188.53,524.75 " />
<polyline fill="none" vector-effect="none" points="1563,524.75 1563,264.25 " />
<polyline fill="none" vector-effect="none" points="1432.75,427.062 1432.75,524.75 " />
<polyline fill="none" vector-effect="none" points="1367.62,459.625 1367.62,524.75 " />
<polyline fill="none" vector-effect="none" points="1335.06,475.906 1335.06,524.75 " />
<polyline fill="none" vector-effect="none" points="1400.19,475.906 1400.19,524.75 " />
<polyline fill="none" vector-effect="none" points="1530.44,475.906 1530.44,524.75 " />
<polyline fill="none" vector-effect="none" points="1497.88,459.625 1497.88,524.75 " />
<polyline fill="none" vector-effect="none" points="1465.31,475.906 1465.31,524.75 " />
<polyline fill="none" vector-effect="none" points="1318.78,500.328 1318.78,524.75 " />
<polyline fill="none" vector-effect="none" points="1351.34,500.328 1351.34,524.75 " />
<polyline fill="none" vector-effect="none" points="1416.47,500.328 1416.47,524.75 " />
<polyline fill="none" vector-effect="none" points="1383.91,500.328 1383.91,524.75 " />
<polyline fill="none" vector-effect="none" points="1546.72,500.328 1546.72,524.75 " />
<polyline fill="none" vector-effect="none" points="1514.16,500.328 1514.16,524.75 " />
<polyline fill="none" vector-effect="none" points="1481.59,500.328 1481.59,524.75 " />
<polyline fill="none" vector-effect="none" points="1449.03,500.328 1449.03,524.75 " />
</g>

<g fill="#000000" fill-opacity="1" stroke="#000000" stroke-opacity="1" stroke-width="1" stroke-linecap="round" stroke-linejoin="bevel" transform="matrix(0.0325417,0,0,0.0325212,247.707,475.368)"
font-family="Arial" font-size="1396.36" font-weight="400" font-style="normal" 
>
<text fill="#000000" fill-opacity="1" stroke="none" xml:space="preserve" x="0" y="0" font-family="Arial" font-size="1396.36" font-weight="400" font-style="normal" 
 >1</text>
</g>

<g fill="#000000" fill-opacity="1" stroke="#000000" stroke-opacity="1" stroke-width="1" stroke-linecap="round" stroke-linejoin="bevel" transform="matrix(0.99936,0,0,0.998733,0,0)"
font-family="MS Shell Dlg 2" font-size="11" font-weight="400" font-style="normal" 
>
</g>

<g fill="#000000" fill-opacity="1" stroke="#000000" stroke-opacity="1" stroke-width="1" stroke-linecap="round" stroke-linejoin="bevel" transform="matrix(0.0325417,0,0,0.0325212,508.041,475.368)"
font-family="Arial" font-size="1396.36" font-weight="400" font-style="normal" 
>
<text fill="#000000" fill-opacity="1" stroke="none" xml:space="preserve" x="0" y="0" font-family="Arial" font-size="1396.36" font-weight="400" font-style="normal" 
 >2</text>
</g>

<g fill="#000000" fill-opacity="1" stroke="#000000" stroke-opacity="1" stroke-width="1" stroke-linecap="round" stroke-linejoin="bevel" transform="matrix(0.99936,0,0,0.998733,0,0)"
font-family="MS Shell Dlg 2" font-size="11" font-weight="400" font-style="normal" 
>
</g>

<g fill="#000000" fill-opacity="1" stroke="#000000" stroke-opacity="1" stroke-width="1" stroke-linecap="round" stroke-linejoin="bevel" transform="matrix(0.0325417,0,0,0.0325212,768.374,475.092)"
font-family="Arial" font-size="1396.36" font-weight="400" font-style="normal" 
>
<text fill="#000000" fill-opacity="1" stroke="none" xml:space="preserve" x="0" y="0" font-family="Arial" font-size="1396.36" font-weight="400" font-style="normal" 
 >3</text>
</g>

<g fill="#000000" fill-opacity="1" stroke="#000000" stroke-opacity="1" stroke-width="1" stroke-linecap="round" stroke-linejoin="bevel" transform="matrix(0.99936,0,0,0.998733,0,0)"
font-family="MS Shell Dlg 2" font-size="11" font-weight="400" font-style="normal" 
>
</g>

<g fill="#000000" fill-opacity="1" stroke="#000000" stroke-opacity="1" stroke-width="1" stroke-linecap="round" stroke-linejoin="bevel" transform="matrix(0.0325417,0,0,0.0325212,1028.71,475.287)"
font-family="Arial" font-size="1396.36" font-weight="400" font-style="normal" 
>
<text fill="#000000" fill-opacity="1" stroke="none" xml:space="preserve" x="0" y="0" font-family="Arial" font-size="1396.36" font-weight="400" font-style="normal" 
 >4</text>
</g>

<g fill="#000000" fill-opacity="1" stroke="#000000" stroke-opacity="1" stroke-width="1" stroke-linecap="round" stroke-linejoin="bevel" transform="matrix(0.99936,0,0,0.998733,0,0)"
font-family="MS Shell Dlg 2" font-size="11" font-weight="400" font-style="normal" 
>
</g>

<g fill="#000000" fill-opacity="1" stroke="#000000" stroke-opacity="1" stroke-width="1" stroke-linecap="round" stroke-linejoin="bevel" transform="matrix(0.0325417,0,0,0.0325212,1289.04,474.799)"
font-family="Arial" font-size="1396.36" font-weight="400" font-style="normal" 
>
<text fill="#000000" fill-opacity="1" stroke="none" xml:space="preserve" x="0" y="0" font-family="Arial" font-size="1396.36" font-weight="400" font-style="normal" 
 >5</text>
</g>

<g fill="#000000" fill-opacity="1" stroke="#000000" stroke-opacity="1" stroke-width="1" stroke-linecap="round" stroke-linejoin="bevel" transform="matrix(0.99936,0,0,0.998733,0,0)"
font-family="MS Shell Dlg 2" font-size="11" font-weight="400" font-style="normal" 
>
</g>

<g fill="#000000" fill-opacity="1" stroke="#000000" stroke-opacity="1" stroke-width="1" stroke-linecap="round" stroke-linejoin="bevel" transform="matrix(0.0325417,0,0,0.0325212,63.261,443.418)"
font-family="Arial" font-size="1396.36" font-weight="400" font-style="normal" 
>
<text fill="#000000" fill-opacity="1" stroke="none" xml:space="preserve" x="0" y="0" font-family="Arial" font-size="1396.36" font-weight="400" font-style="normal" 
 >I</text>
<text fill="#000000" fill-opacity="1" stroke="none" xml:space="preserve" x="388" y="0" font-family="Arial" font-size="1396.36" font-weight="400" font-style="normal" 
 >n</text>
<text fill="#000000" fill-opacity="1" stroke="none" xml:space="preserve" x="1164" y="0" font-family="Arial" font-size="1396.36" font-weight="400" font-style="normal" 
 >c</text>
<text fill="#000000" fill-opacity="1" stroke="none" xml:space="preserve" x="1862" y="0" font-family="Arial" font-size="1396.36" font-weight="400" font-style="normal" 
 >h</text>
<text fill="#000000" fill-opacity="1" stroke="none" xml:space="preserve" x="2638" y="0" font-family="Arial" font-size="1396.36" font-weight="400" font-style="normal" 
 >e</text>
<text fill="#000000" fill-opacity="1" stroke="none" xml:space="preserve" x="3414" y="0" font-family="Arial" font-size="1396.36" font-weight="400" font-style="normal" 
 >s</text>
</g>

<g fill="#000000" fill-opacity="1" stroke="#000000" stroke-opacity="1" stroke-width="1" stroke-linecap="round" stroke-linejoin="bevel" transform="matrix(0.99936,0,0,0.998733,0,0)"
font-family="MS Shell Dlg 2" font-size="11" font-weight="400" font-style="normal" 
>
<polyline fill="none" vector-effect="none" points="102.559,361.938 102.559,264.25 " />
<polyline fill="none" vector-effect="none" points="41.0235,288.672 41.0235,264.25 " />
<polyline fill="none" vector-effect="none" points="51.2794,313.094 51.2794,264.25 " />
<polyline fill="none" vector-effect="none" points="30.7677,288.672 30.7677,264.25 " />
<polyline fill="none" vector-effect="none" points="20.5118,288.672 20.5118,264.25 " />
<polyline fill="none" vector-effect="none" points="10.2559,288.672 10.2559,264.25 " />
<polyline fill="none" vector-effect="none" points="92.303,288.672 92.303,264.25 " />
<polyline fill="none" vector-effect="none" points="82.0471,288.672 82.0471,264.25 " />
<polyline fill="none" vector-effect="none" points="71.7912,288.672 71.7912,264.25 " />
<polyline fill="none" vector-effect="none" points="61.5353,288.672 61.5353,264.25 " />
<polyline fill="none" vector-effect="none" points="205.118,361.938 205.118,264.25 " />
<polyline fill="none" vector-effect="none" points="143.582,288.672 143.582,264.25 " />
<polyline fill="none" vector-effect="none" points="153.838,313.094 153.838,264.25 " />
<polyline fill="none" vector-effect="none" points="133.327,288.672 133.327,264.25 " />
<polyline fill="none" vector-effect="none" points="123.071,288.672 123.071,264.25 " />
<polyline fill="none" vector-effect="none" points="112.815,288.672 112.815,264.25 " />
<polyline fill="none" vector-effect="none" points="194.862,288.672 194.862,264.25 " />
<polyline fill="none" vector-effect="none" points="184.606,288.672 184.606,264.25 " />
<polyline fill="none" vector-effect="none" points="174.35,288.672 174.35,264.25 " />
<polyline fill="none" vector-effect="none" points="164.094,288.672 164.094,264.25 " />
<polyline fill="none" vector-effect="none" points="307.677,361.938 307.677,264.25 " />
<polyline fill="none" vector-effect="none" points="246.141,288.672 246.141,264.25 " />
<polyline fill="none" vector-effect="none" points="256.397,313.094 256.397,264.25 " />
<polyline fill="none" vector-effect="none" points="235.885,288.672 235.885,264.25 " />
<polyline fill="none" vector-effect="none" points="225.629,288.672 225.629,264.25 " />
<polyline fill="none" vector-effect="none" points="215.374,288.672 215.374,264.25 " />
<polyline fill="none" vector-effect="none" points="297.421,288.672 297.421,264.25 " />
<polyline fill="none" vector-effect="none" points="287.165,288.672 287.165,264.25 " />
<polyline fill="none" vector-effect="none" points="276.909,288.672 276.909,264.25 " />
<polyline fill="none" vector-effect="none" points="266.653,288.672 266.653,264.25 " />
<polyline fill="none" vector-effect="none" points="410.235,361.938 410.235,264.25 " />
<polyline fill="none" vector-effect="none" points="348.7,288.672 348.7,264.25 " />
<polyline fill="none" vector-effect="none" points="358.956,313.094 358.956,264.25 " />
<polyline fill="none" vector-effect="none" points="338.444,288.672 338.444,264.25 " />
<polyline fill="none" vector-effect="none" points="328.188,288.672 328.188,264.25 " />
<polyline fill="none" vector-effect="none" points="317.932,288.672 317.932,264.25 " />
<polyline fill="none" vector-effect="none" points="399.98,288.672 399.98,264.25 " />
<polyline fill="none" vector-effect="none" points="389.724,288.672 389.724,264.25 " />
<polyline fill="none" vector-effect="none" points="379.468,288.672 379.468,264.25 " />
<polyline fill="none" vector-effect="none" points="369.212,288.672 369.212,264.25 " />
<polyline fill="none" vector-effect="none" points="512.794,361.938 512.794,264.25 " />
<polyline fill="none" vector-effect="none" points="451.259,288.672 451.259,264.25 " />
<polyline fill="none" vector-effect="none" points="461.515,313.094 461.515,264.25 " />
<polyline fill="none" vector-effect="none" points="441.003,288.672 441.003,264.25 " />
<polyline fill="none" vector-effect="none" points="430.747,288.672 430.747,264.25 " />
<polyline fill="none" vector-effect="none" points="420.491,288.672 420.491,264.25 " />
<polyline fill="none" vector-effect="none" points="502.538,288.672 502.538,264.25 " />
<polyline fill="none" vector-effect="none" points="492.282,288.672 492.282,264.25 " />
<polyline fill="none" vector-effect="none" points="482.027,288.672 482.027,264.25 " />
<polyline fill="none" vector-effect="none" points="471.771,288.672 471.771,264.25 " />
<polyline fill="none" vector-effect="none" points="615.353,361.938 615.353,264.25 " />
<polyline fill="none" vector-effect="none" points="553.818,288.672 553.818,264.25 " />
<polyline fill="none" vector-effect="none" points="564.074,313.094 564.074,264.25 " />
<polyline fill="none" vector-effect="none" points="543.562,288.672 543.562,264.25 " />
<polyline fill="none" vector-effect="none" points="533.306,288.672 533.306,264.25 " />
<polyline fill="none" vector-effect="none" points="523.05,288.672 523.05,264.25 " />
<polyline fill="none" vector-effect="none" points="605.097,288.672 605.097,264.25 " />
<polyline fill="none" vector-effect="none" points="594.841,288.672 594.841,264.25 " />
<polyline fill="none" vector-effect="none" points="584.585,288.672 584.585,264.25 " />
<polyline fill="none" vector-effect="none" points="574.33,288.672 574.33,264.25 " />
<polyline fill="none" vector-effect="none" points="717.912,361.938 717.912,264.25 " />
<polyline fill="none" vector-effect="none" points="656.377,288.672 656.377,264.25 " />
<polyline fill="none" vector-effect="none" points="666.633,313.094 666.633,264.25 " />
<polyline fill="none" vector-effect="none" points="646.121,288.672 646.121,264.25 " />
<polyline fill="none" vector-effect="none" points="635.865,288.672 635.865,264.25 " />
<polyline fill="none" vector-effect="none" points="625.609,288.672 625.609,264.25 " />
<polyline fill="none" vector-effect="none" points="707.656,288.672 707.656,264.25 " />
<polyline fill="none" vector-effect="none" points="697.4,288.672 697.4,264.25 " />
<polyline fill="none" vector-effect="none" points="687.144,288.672 687.144,264.25 " />
<polyline fill="none" vector-effect="none" points="676.888,288.672 676.888,264.25 " />
<polyline fill="none" vector-effect="none" points="820.471,361.938 820.471,264.25 " />
<polyline fill="none" vector-effect="none" points="758.935,288.672 758.935,264.25 " />
<polyline fill="none" vector-effect="none" points="769.191,313.094 769.191,264.25 " />
<polyline fill="none" vector-effect="none" points="748.68,288.672 748.68,264.25 " />
<polyline fill="none" vector-effect="none" points="738.424,288.672 738.424,264.25 " />
<polyline fill="none" vector-effect="none" points="728.168,288.672 728.168,264.25 " />
<polyline fill="none" vector-effect="none" points="810.215,288.672 810.215,264.25 " />
<polyline fill="none" vector-effect="none" points="799.959,288.672 799.959,264.25 " />
<polyline fill="none" vector-effect="none" points="789.703,288.672 789.703,264.25 " />
<polyline fill="none" vector-effect="none" points="779.447,288.672 779.447,264.25 " />
<polyline fill="none" vector-effect="none" points="923.03,361.938 923.03,264.25 " />
<polyline fill="none" vector-effect="none" points="861.494,288.672 861.494,264.25 " />
<polyline fill="none" vector-effect="none" points="871.75,313.094 871.75,264.25 " />
<polyline fill="none" vector-effect="none" points="851.238,288.672 851.238,264.25 " />
<polyline fill="none" vector-effect="none" points="840.983,288.672 840.983,264.25 " />
<polyline fill="none" vector-effect="none" points="830.727,288.672 830.727,264.25 " />
<polyline fill="none" vector-effect="none" points="912.774,288.672 912.774,264.25 " />
<polyline fill="none" vector-effect="none" points="902.518,288.672 902.518,264.25 " />
<polyline fill="none" vector-effect="none" points="892.262,288.672 892.262,264.25 " />
<polyline fill="none" vector-effect="none" points="882.006,288.672 882.006,264.25 " />
<polyline fill="none" vector-effect="none" points="1025.59,361.938 1025.59,264.25 " />
<polyline fill="none" vector-effect="none" points="964.053,288.672 964.053,264.25 " />
<polyline fill="none" vector-effect="none" points="974.309,313.094 974.309,264.25 " />
<polyline fill="none" vector-effect="none" points="953.797,288.672 953.797,264.25 " />
<polyline fill="none" vector-effect="none" points="943.541,288.672 943.541,264.25 " />
<polyline fill="none" vector-effect="none" points="933.286,288.672 933.286,264.25 " />
<polyline fill="none" vector-effect="none" points="1015.33,288.672 1015.33,264.25 " />
<polyline fill="none" vector-effect="none" points="1005.08,288.672 1005.08,264.25 " />
<polyline fill="none" vector-effect="none" points="994.821,288.672 994.821,264.25 " />
<polyline fill="none" vector-effect="none" points="984.565,288.672 984.565,264.25 " />
<polyline fill="none" vector-effect="none" points="1128.15,361.938 1128.15,264.25 " />
<polyline fill="none" vector-effect="none" points="1066.61,288.672 1066.61,264.25 " />
<polyline fill="none" vector-effect="none" points="1076.87,313.094 1076.87,264.25 " />
<polyline fill="none" vector-effect="none" points="1056.36,288.672 1056.36,264.25 " />
<polyline fill="none" vector-effect="none" points="1046.1,288.672 1046.1,264.25 " />
<polyline fill="none" vector-effect="none" points="1035.84,288.672 1035.84,264.25 " />
<polyline fill="none" vector-effect="none" points="1117.89,288.672 1117.89,264.25 " />
<polyline fill="none" vector-effect="none" points="1107.64,288.672 1107.64,264.25 " />
<polyline fill="none" vector-effect="none" points="1097.38,288.672 1097.38,264.25 " />
<polyline fill="none" vector-effect="none" points="1087.12,288.672 1087.12,264.25 " />
<polyline fill="none" vector-effect="none" points="1230.71,361.938 1230.71,264.25 " />
<polyline fill="none" vector-effect="none" points="1169.17,288.672 1169.17,264.25 " />
<polyline fill="none" vector-effect="none" points="1179.43,313.094 1179.43,264.25 " />
<polyline fill="none" vector-effect="none" points="1158.92,288.672 1158.92,264.25 " />
<polyline fill="none" vector-effect="none" points="1148.66,288.672 1148.66,264.25 " />
<polyline fill="none" vector-effect="none" points="1138.4,288.672 1138.4,264.25 " />
<polyline fill="none" vector-effect="none" points="1220.45,288.672 1220.45,264.25 " />
<polyline fill="none" vector-effect="none" points="1210.19,288.672 1210.19,264.25 " />
<polyline fill="none" vector-effect="none" points="1199.94,288.672 1199.94,264.25 " />
<polyline fill="none" vector-effect="none" points="1189.68,288.672 1189.68,264.25 " />
<polyline fill="none" vector-effect="none" points="1333.27,361.938 1333.27,264.25 " />
<polyline fill="none" vector-effect="none" points="1271.73,288.672 1271.73,264.25 " />
<polyline fill="none" vector-effect="none" points="1281.99,313.094 1281.99,264.25 " />
<polyline fill="none" vector-effect="none" points="1261.47,288.672 1261.47,264.25 " />
<polyline fill="none" vector-effect="none" points="1251.22,288.672 1251.22,264.25 " />
<polyline fill="none" vector-effect="none" points="1240.96,288.672 1240.96,264.25 " />
<polyline fill="none" vector-effect="none" points="1323.01,288.672 1323.01,264.25 " />
<polyline fill="none" vector-effect="none" points="1312.75,288.672 1312.75,264.25 " />
<polyline fill="none" vector-effect="none" points="1302.5,288.672 1302.5,264.25 " />
<polyline fill="none" vector-effect="none" points="1292.24,288.672 1292.24,264.25 " />
<polyline fill="none" vector-effect="none" points="1435.82,361.938 1435.82,264.25 " />
<polyline fill="none" vector-effect="none" points="1374.29,288.672 1374.29,264.25 " />
<polyline fill="none" vector-effect="none" points="1384.54,313.094 1384.54,264.25 " />
<polyline fill="none" vector-effect="none" points="1364.03,288.672 1364.03,264.25 " />
<polyline fill="none" vector-effect="none" points="1353.78,288.672 1353.78,264.25 " />
<polyline fill="none" vector-effect="none" points="1343.52,288.672 1343.52,264.25 " />
<polyline fill="none" vector-effect="none" points="1425.57,288.672 1425.57,264.25 " />
<polyline fill="none" vector-effect="none" points="1415.31,288.672 1415.31,264.25 " />
<polyline fill="none" vector-effect="none" points="1405.06,288.672 1405.06,264.25 " />
<polyline fill="none" vector-effect="none" points="1394.8,288.672 1394.8,264.25 " />
<polyline fill="none" vector-effect="none" points="1538.38,361.938 1538.38,264.25 " />
<polyline fill="none" vector-effect="none" points="1476.85,288.672 1476.85,264.25 " />
<polyline fill="none" vector-effect="none" points="1487.1,313.094 1487.1,264.25 " />
<polyline fill="none" vector-effect="none" points="1466.59,288.672 1466.59,264.25 " />
<polyline fill="none" vector-effect="none" points="1456.34,288.672 1456.34,264.25 " />
<polyline fill="none" vector-effect="none" points="1446.08,288.672 1446.08,264.25 " />
<polyline fill="none" vector-effect="none" points="1528.13,288.672 1528.13,264.25 " />
<polyline fill="none" vector-effect="none" points="1517.87,288.672 1517.87,264.25 " />
<polyline fill="none" vector-effect="none" points="1507.62,288.672 1507.62,264.25 " />
<polyline fill="none" vector-effect="none" points="1497.36,288.672 1497.36,264.25 " />
<polyline fill="none" vector-effect="none" points="1558.89,288.672 1558.89,264.25 " />
<polyline fill="none" vector-effect="none" points="1548.64,288.672 1548.64,264.25 " />
</g>

<g fill="#000000" fill-opacity="1" stroke="#000000" stroke-opacity="1" stroke-width="1" stroke-linecap="round" stroke-linejoin="bevel" transform="matrix(0.0325417,0,0,0.0325212,89.5646,342.008)"
font-family="Arial" font-size="1396.36" font-weight="400" font-style="normal" 
>
<text fill="#000000" fill-opacity="1" stroke="none" xml:space="preserve" x="0" y="0" font-family="Arial" font-size="1396.36" font-weight="400" font-style="normal" 
 >1</text>
</g>

<g fill="#000000" fill-opacity="1" stroke="#000000" stroke-opacity="1" stroke-width="1" stroke-linecap="round" stroke-linejoin="bevel" transform="matrix(0.99936,0,0,0.998733,0,0)"
font-family="MS Shell Dlg 2" font-size="11" font-weight="400" font-style="normal" 
>
</g>

<g fill="#000000" fill-opacity="1" stroke="#000000" stroke-opacity="1" stroke-width="1" stroke-linecap="round" stroke-linejoin="bevel" transform="matrix(0.0325417,0,0,0.0325212,192.058,342.008)"
font-family="Arial" font-size="1396.36" font-weight="400" font-style="normal" 
>
<text fill="#000000" fill-opacity="1" stroke="none" xml:space="preserve" x="0" y="0" font-family="Arial" font-size="1396.36" font-weight="400" font-style="normal" 
 >2</text>
</g>

<g fill="#000000" fill-opacity="1" stroke="#000000" stroke-opacity="1" stroke-width="1" stroke-linecap="round" stroke-linejoin="bevel" transform="matrix(0.99936,0,0,0.998733,0,0)"
font-family="MS Shell Dlg 2" font-size="11" font-weight="400" font-style="normal" 
>
</g>

<g fill="#000000" fill-opacity="1" stroke="#000000" stroke-opacity="1" stroke-width="1" stroke-linecap="round" stroke-linejoin="bevel" transform="matrix(0.0325417,0,0,0.0325212,294.551,341.732)"
font-family="Arial" font-size="1396.36" font-weight="400" font-style="normal" 
>
<text fill="#000000" fill-opacity="1" stroke="none" xml:space="preserve" x="0" y="0" font-family="Arial" font-size="1396.36" font-weight="400" font-style="normal" 
 >3</text>
</g>

<g fill="#000000" fill-opacity="1" stroke="#000000" stroke-opacity="1" stroke-width="1" stroke-linecap="round" stroke-linejoin="bevel" transform="matrix(0.99936,0,0,0.998733,0,0)"
font-family="MS Shell Dlg 2" font-size="11" font-weight="400" font-style="normal" 
>
</g>

<g fill="#000000" fill-opacity="1" stroke="#000000" stroke-opacity="1" stroke-width="1" stroke-linecap="round" stroke-linejoin="bevel" transform="matrix(0.0325417,0,0,0.0325212,397.044,341.927)"
font-family="Arial" font-size="1396.36" font-weight="400" font-style="normal" 
>
<text fill="#000000" fill-opacity="1" stroke="none" xml:space="preserve" x="0" y="0" font-family="Arial" font-size="1396.36" font-weight="400" font-style="normal" 
 >4</text>
</g>

<g fill="#000000" fill-opacity="1" stroke="#000000" stroke-opacity="1" stroke-width="1" stroke-linecap="round" stroke-linejoin="bevel" transform="matrix(0.99936,0,0,0.998733,0,0)"
font-family="MS Shell Dlg 2" font-size="11" font-weight="400" font-style="normal" 
>
</g>

<g fill="#000000" fill-opacity="1" stroke="#000000" stroke-opacity="1" stroke-width="1" stroke-linecap="round" stroke-linejoin="bevel" transform="matrix(0.0325417,0,0,0.0325212,499.538,341.439)"
font-family="Arial" font-size="1396.36" font-weight="400" font-style="normal" 
>
<text fill="#000000" fill-opacity="1" stroke="none" xml:space="preserve" x="0" y="0" font-family="Arial" font-size="1396.36" font-weight="400" font-style="normal" 
 >5</text>
</g>

<g fill="#000000" fill-opacity="1" stroke="#000000" stroke-opacity="1" stroke-width="1" stroke-linecap="round" stroke-linejoin="bevel" transform="matrix(0.99936,0,0,0.998733,0,0)"
font-family="MS Shell Dlg 2" font-size="11" font-weight="400" font-style="normal" 
>
</g>

<g fill="#000000" fill-opacity="1" stroke="#000000" stroke-opacity="1" stroke-width="1" stroke-linecap="round" stroke-linejoin="bevel" transform="matrix(0.0325417,0,0,0.0325212,602.031,341.732)"
font-family="Arial" font-size="1396.36" font-weight="400" font-style="normal" 
>
<text fill="#000000" fill-opacity="1" stroke="none" xml:space="preserve" x="0" y="0" font-family="Arial" font-size="1396.36" font-weight="400" font-style="normal" 
 >6</text>
</g>

<g fill="#000000" fill-opacity="1" stroke="#000000" stroke-opacity="1" stroke-width="1" stroke-linecap="round" stroke-linejoin="bevel" transform="matrix(0.99936,0,0,0.998733,0,0)"
font-family="MS Shell Dlg 2" font-size="11" font-weight="400" font-style="normal" 
>
</g>

<g fill="#000000" fill-opacity="1" stroke="#000000" stroke-opacity="1" stroke-width="1" stroke-linecap="round" stroke-linejoin="bevel" transform="matrix(0.0325417,0,0,0.0325212,704.524,341.732)"
font-family="Arial" font-size="1396.36" font-weight="400" font-style="normal" 
>
<text fill="#000000" fill-opacity="1" stroke="none" xml:space="preserve" x="0" y="0" font-family="Arial" font-size="1396.36" font-weight="400" font-style="normal" 
 >7</text>
</g>

<g fill="#000000" fill-opacity="1" stroke="#000000" stroke-opacity="1" stroke-width="1" stroke-linecap="round" stroke-linejoin="bevel" transform="matrix(0.99936,0,0,0.998733,0,0)"
font-family="MS Shell Dlg 2" font-size="11" font-weight="400" font-style="normal" 
>
</g>

<g fill="#000000" fill-opacity="1" stroke="#000000" stroke-opacity="1" stroke-width="1" stroke-linecap="round" stroke-linejoin="bevel" transform="matrix(0.0325417,0,0,0.0325212,807.017,341.732)"
font-family="Arial" font-size="1396.36" font-weight="400" font-style="normal" 
>
<text fill="#000000" fill-opacity="1" stroke="none" xml:space="preserve" x="0" y="0" font-family="Arial" font-size="1396.36" font-weight="400" font-style="normal" 
 >8</text>
</g>

<g fill="#000000" fill-opacity="1" stroke="#000000" stroke-opacity="1" stroke-width="1" stroke-linecap="round" stroke-linejoin="bevel" transform="matrix(0.99936,0,0,0.998733,0,0)"
font-family="MS Shell Dlg 2" font-size="11" font-weight="400" font-style="normal" 
>
</g>

<g fill="#000000" fill-opacity="1" stroke="#000000" stroke-opacity="1" stroke-width="1" stroke-linecap="round" stroke-linejoin="bevel" transform="matrix(0.0325417,0,0,0.0325212,909.51,341.732)"
font-family="Arial" font-size="1396.36" font-weight="400" font-style="normal" 
>
<text fill="#000000" fill-opacity="1" stroke="none" xml:space="preserve" x="0" y="0" font-family="Arial" font-size="1396.36" font-weight="400" font-style="normal" 
 >9</text>
</g>

<g fill="#000000" fill-opacity="1" stroke="#000000" stroke-opacity="1" stroke-width="1" stroke-linecap="round" stroke-linejoin="bevel" transform="matrix(0.99936,0,0,0.998733,0,0)"
font-family="MS Shell Dlg 2" font-size="11" font-weight="400" font-style="normal" 
>
</g>

<g fill="#000000" fill-opacity="1" stroke="#000000" stroke-opacity="1" stroke-width="1" stroke-linecap="round" stroke-linejoin="bevel" transform="matrix(0.0325417,0,0,0.0325212,999.378,341.732)"
font-family="Arial" font-size="1396.36" font-weight="400" font-style="normal" 
>
<text fill="#000000" fill-opacity="1" stroke="none" xml:space="preserve" x="0" y="0" font-family="Arial" font-size="1396.36" font-weight="400" font-style="normal" 
 >1</text>
<text fill="#000000" fill-opacity="1" stroke="none" xml:space="preserve" x="776" y="0" font-family="Arial" font-size="1396.36" font-weight="400" font-style="normal" 
 >0</text>
</g>

<g fill="#000000" fill-opacity="1" stroke="#000000" stroke-opacity="1" stroke-width="1" stroke-linecap="round" stroke-linejoin="bevel" transform="matrix(0.99936,0,0,0.998733,0,0)"
font-family="MS Shell Dlg 2" font-size="11" font-weight="400" font-style="normal" 
>
</g>

<g fill="#000000" fill-opacity="1" stroke="#000000" stroke-opacity="1" stroke-width="1" stroke-linecap="round" stroke-linejoin="bevel" transform="matrix(0.0325417,0,0,0.0325212,1101.87,342.008)"
font-family="Arial" font-size="1396.36" font-weight="400" font-style="normal" 
>
<text fill="#000000" fill-opacity="1" stroke="none" xml:space="preserve" x="0" y="0" font-family="Arial" font-size="1396.36" font-weight="400" font-style="normal" 
 >1</text>
<text fill="#000000" fill-opacity="1" stroke="none" xml:space="preserve" x="776" y="0" font-family="Arial" font-size="1396.36" font-weight="400" font-style="normal" 
 >1</text>
</g>

<g fill="#000000" fill-opacity="1" stroke="#000000" stroke-opacity="1" stroke-width="1" stroke-linecap="round" stroke-linejoin="bevel" transform="matrix(0.99936,0,0,0.998733,0,0)"
font-family="MS Shell Dlg 2" font-size="11" font-weight="400" font-style="normal" 
>
</g>

<g fill="#000000" fill-opacity="1" stroke="#000000" stroke-opacity="1" stroke-width="1" stroke-linecap="round" stroke-linejoin="bevel" transform="matrix(0.0325417,0,0,0.0325212,1204.36,342.008)"
font-family="Arial" font-size="1396.36" font-weight="400" font-style="normal" 
>
<text fill="#000000" fill-opacity="1" stroke="none" xml:space="preserve" x="0" y="0" font-family="Arial" font-size="1396.36" font-weight="400" font-style="normal" 
 >1</text>
<text fill="#000000" fill-opacity="1" stroke="none" xml:space="preserve" x="776" y="0" font-family="Arial" font-size="1396.36" font-weight="400" font-style="normal" 
 >2</text>
</g>

<g fill="#000000" fill-opacity="1" stroke="#000000" stroke-opacity="1" stroke-width="1" stroke-linecap="round" stroke-linejoin="bevel" transform="matrix(0.99936,0,0,0.998733,0,0)"
font-family="MS Shell Dlg 2" font-size="11" font-weight="400" font-style="normal" 
>
</g>

<g fill="#000000" fill-opacity="1" stroke="#000000" stroke-opacity="1" stroke-width="1" stroke-linecap="round" stroke-linejoin="bevel" transform="matrix(0.0325417,0,0,0.0325212,1306.86,341.732)"
font-family="Arial" font-size="1396.36" font-weight="400" font-style="normal" 
>
<text fill="#000000" fill-opacity="1" stroke="none" xml:space="preserve" x="0" y="0" font-family="Arial" font-size="1396.36" font-weight="400" font-style="normal" 
 >1</text>
<text fill="#000000" fill-opacity="1" stroke="none" xml:space="preserve" x="776" y="0" font-family="Arial" font-size="1396.36" font-weight="400" font-style="normal" 
 >3</text>
</g>

<g fill="#000000" fill-opacity="1" stroke="#000000" stroke-opacity="1" stroke-width="1" stroke-linecap="round" stroke-linejoin="bevel" transform="matrix(0.99936,0,0,0.998733,0,0)"
font-family="MS Shell Dlg 2" font-size="11" font-weight="400" font-style="normal" 
>
</g>

<g fill="#000000" fill-opacity="1" stroke="#000000" stroke-opacity="1" stroke-width="1" stroke-linecap="round" stroke-linejoin="bevel" transform="matrix(0.0325417,0,0,0.0325212,1409.35,342.008)"
font-family="Arial" font-size="1396.36" font-weight="400" font-style="normal" 
>
<text fill="#000000" fill-opacity="1" stroke="none" xml:space="preserve" x="0" y="0" font-family="Arial" font-size="1396.36" font-weight="400" font-style="normal" 
 >1</text>
<text fill="#000000" fill-opacity="1" stroke="none" xml:space="preserve" x="776" y="0" font-family="Arial" font-size="1396.36" font-weight="400" font-style="normal" 
 >4</text>
</g>

<g fill="#000000" fill-opacity="1" stroke="#000000" stroke-opacity="1" stroke-width="1" stroke-linecap="round" stroke-linejoin="bevel" transform="matrix(0.99936,0,0,0.998733,0,0)"
font-family="MS Shell Dlg 2" font-size="11" font-weight="400" font-style="normal" 
>
</g>

<g fill="#000000" fill-opacity="1" stroke="#000000" stroke-opacity="1" stroke-width="1" stroke-linecap="round" stroke-linejoin="bevel" transform="matrix(0.0325417,0,0,0.0325212,1511.84,341.732)"
font-family="Arial" font-size="1396.36" font-weight="400" font-style="normal" 
>
<text fill="#000000" fill-opacity="1" stroke="none" xml:space="preserve" x="0" y="0" font-family="Arial" font-size="1396.36" font-weight="400" font-style="normal" 
 >1</text>
<text fill="#000000" fill-opacity="1" stroke="none" xml:space="preserve" x="776" y="0" font-family="Arial" font-size="1396.36" font-weight="400" font-style="normal" 
 >5</text>
</g>

<g fill="#000000" fill-opacity="1" stroke="#000000" stroke-opacity="1" stroke-width="1" stroke-linecap="round" stroke-linejoin="bevel" transform="matrix(0.99936,0,0,0.998733,0,0)"
font-family="MS Shell Dlg 2" font-size="11" font-weight="400" font-style="normal" 
>
</g>

<g fill="#000000" fill-opacity="1" stroke="#000000" stroke-opacity="1" stroke-width="1" stroke-linecap="round" stroke-linejoin="bevel" transform="matrix(0.0325417,0,0,0.0325212,11.1749,385.404)"
font-family="Arial" font-size="1396.36" font-weight="400" font-style="normal" 
>
<text fill="#000000" fill-opacity="1" stroke="none" xml:space="preserve" x="0" y="0" font-family="Arial" font-size="1396.36" font-weight="400" font-style="normal" 
 >C</text>
<text fill="#000000" fill-opacity="1" stroke="none" xml:space="preserve" x="1008" y="0" font-family="Arial" font-size="1396.36" font-weight="400" font-style="normal" 
 >e</text>
<text fill="#000000" fill-opacity="1" stroke="none" xml:space="preserve" x="1784" y="0" font-family="Arial" font-size="1396.36" font-weight="400" font-style="normal" 
 >n</text>
<text fill="#000000" fill-opacity="1" stroke="none" xml:space="preserve" x="2560" y="0" font-family="Arial" font-size="1396.36" font-weight="400" font-style="normal" 
 >t</text>
<text fill="#000000" fill-opacity="1" stroke="none" xml:space="preserve" x="2948" y="0" font-family="Arial" font-size="1396.36" font-weight="400" font-style="normal" 
 >i</text>
<text fill="#000000" fill-opacity="1" stroke="none" xml:space="preserve" x="3258" y="0" font-family="Arial" font-size="1396.36" font-weight="400" font-style="normal" 
 >m</text>
<text fill="#000000" fill-opacity="1" stroke="none" xml:space="preserve" x="4421" y="0" font-family="Arial" font-size="1396.36" font-weight="400" font-style="normal" 
 >e</text>
<text fill="#000000" fill-opacity="1" stroke="none" xml:space="preserve" x="5197" y="0" font-family="Arial" font-size="1396.36" font-weight="400" font-style="normal" 
 >t</text>
<text fill="#000000" fill-opacity="1" stroke="none" xml:space="preserve" x="5585" y="0" font-family="Arial" font-size="1396.36" font-weight="400" font-style="normal" 
 >e</text>
<text fill="#000000" fill-opacity="1" stroke="none" xml:space="preserve" x="6361" y="0" font-family="Arial" font-size="1396.36" font-weight="400" font-style="normal" 
 >r</text>
<text fill="#000000" fill-opacity="1" stroke="none" xml:space="preserve" x="6826" y="0" font-family="Arial" font-size="1396.36" font-weight="400" font-style="normal" 
 >s</text>
</g>

<g fill="#000000" fill-opacity="1" stroke="#000000" stroke-opacity="1" stroke-width="1" stroke-linecap="round" stroke-linejoin="bevel" transform="matrix(0.99936,0,0,0.998733,0,0)"
font-family="MS Shell Dlg 2" font-size="11" font-weight="400" font-style="normal" 
>
</g>

<g fill="#000000" fill-opacity="1" stroke="#000000" stroke-opacity="1" stroke-width="1" stroke-linecap="square" stroke-linejoin="bevel" transform="matrix(0.99936,0,0,0.998733,0,0)"
font-family="MS Shell Dlg 2" font-size="11" font-weight="400" font-style="normal" 
>
</g>

<g fill="#000000" fill-opacity="1" stroke="none" transform="matrix(1,0,0,1,0,0)"
font-family="MS Shell Dlg 2" font-size="11" font-weight="400" font-style="normal" 
>
<path vector-effect="non-scaling-stroke" fill-rule="evenodd" d="M26.7685,368.102 L27.7685,368.102 L27.7685,369.102 L26.7685,369.102 L26.7685,368.102"/>
</g>

<g fill="#000000" fill-opacity="1" stroke="#000000" stroke-opacity="1" stroke-width="1" stroke-linecap="square" stroke-linejoin="bevel" transform="matrix(0.99936,0,0,0.998733,0,0)"
font-family="MS Shell Dlg 2" font-size="11" font-weight="400" font-style="normal" 
>
</g>

<g fill="#000000" fill-opacity="1" stroke="none" transform="matrix(1,0,0,1,0,0)"
font-family="MS Shell Dlg 2" font-size="11" font-weight="400" font-style="normal" 
>
<path vector-effect="non-scaling-stroke" fill-rule="evenodd" d="M26.5311,368.141 L27.5311,368.141 L27.5311,369.141 L26.5311,369.141 L26.5311,368.141"/>
</g>

<g fill="#000000" fill-opacity="1" stroke="#000000" stroke-opacity="1" stroke-width="1" stroke-linecap="square" stroke-linejoin="bevel" transform="matrix(0.99936,0,0,0.998733,0,0)"
font-family="MS Shell Dlg 2" font-size="11" font-weight="400" font-style="normal" 
>
</g>

<g fill="#000000" fill-opacity="1" stroke="#000000" stroke-opacity="1" stroke-width="1" stroke-linecap="square" stroke-linejoin="bevel" transform="matrix(0.99936,0,0,0.998733,0,0)"
font-family="MS Shell Dlg 2" font-size="11" font-weight="400" font-style="normal" 
>
</g>

<g fill="#000000" fill-opacity="1" stroke="#000000" stroke-opacity="1" stroke-width="1" stroke-linecap="square" stroke-linejoin="bevel" transform="matrix(1,0,0,1,0,0)"
font-family="MS Shell Dlg 2" font-size="11" font-weight="400" font-style="normal" 
>
</g>

<g fill="none" stroke="#000000" stroke-opacity="1" stroke-width="1" stroke-linecap="square" stroke-linejoin="bevel" transform="matrix(1,0,0,1,0,0)"
font-family="MS Shell Dlg 2" font-size="11" font-weight="400" font-style="normal" 
>
</g>
</g>
</svg>
